<svg width="1500" height="400" viewBox="0 0 1500 400" fill="none" xmlns="http://www.w3.org/2000/svg">
<path d="M250 187L336.603 237V337L250 387L163.397 337V237L250 187Z" fill="black"/>
<path d="M350 14L436.603 64V164L350 214L263.397 164V64L350 14Z" fill="black"/>
<path d="M550 14L636.603 64V164L550 214L463.397 164V64L550 14Z" fill="black"/>
<path d="M750 14L836.603 64V164L750 214L663.397 164V64L750 14Z" fill="black"/>
<path d="M850 187L936.603 237V337L850 387L763.397 337V237L850 187Z" fill="black"/>
<path d="M950 14L1036.6 64V164L950 214L863.397 164V64L950 14Z" fill="black"/>
<path d="M1050 187L1136.6 237V337L1050 387L963.397 337V237L1050 187Z" fill="black"/>
<path d="M1150 14L1236.6 64V164L1150 214L1063.4 164V64L1150 14Z" fill="black"/>
<path d="M1250 187L1336.6 237V337L1250 387L1163.4 337V237L1250 187Z" fill="black"/>
<path d="M650 187L736.603 237V337L650 387L563.397 337V237L650 187Z" fill="black"/>
<path d="M450 187L536.603 237V337L450 387L363.397 337V237L450 187Z" fill="black"/>
<path d="M757.898 162.339C755.346 165.555 750.16 163.794 750.103 159.685L749.2 99.6006H789.604C796.92 99.6006 801 108.052 796.45 113.78L757.898 162.339Z" fill="url(#paint0_linear_2266_88)"/>
<path d="M757.898 162.339C755.346 165.555 750.16 163.794 750.103 159.685L749.2 99.6006H789.604C796.92 99.6006 801 108.052 796.45 113.78L757.898 162.339Z" fill="url(#paint1_linear_2266_88)" fill-opacity="0.2"/>
<path d="M741.465 65.6612C744.017 62.4447 749.203 64.2065 749.26 68.3144L749.657 128.4H709.759C702.443 128.4 698.363 119.949 702.912 114.22L741.465 65.6612Z" fill="#3ECF8E"/>
<path fill-rule="evenodd" clip-rule="evenodd" d="M1070.18 269.63C1071.49 273.436 1072.44 277.322 1072.75 281.35C1073.14 286.347 1072.96 291.309 1071.91 296.224C1071.88 296.359 1071.82 296.486 1071.77 296.617C1071.44 296.618 1071.11 296.577 1070.78 296.627C1068.05 297.056 1065.33 297.5 1062.6 297.942C1059.78 298.399 1056.96 298.837 1054.15 299.325C1053.15 299.497 1051.92 299.292 1051.51 300.671C1051.5 300.708 1051.39 300.715 1051.32 300.736L1051.46 292.496L1051.32 272.613L1052.63 272.388C1054.78 272.036 1056.93 271.679 1059.08 271.338C1061.64 270.93 1064.21 270.534 1066.78 270.137C1067.91 269.96 1069.04 269.799 1070.18 269.63Z" fill="#439934"/>
<path fill-rule="evenodd" clip-rule="evenodd" d="M1048.61 324.757C1047.22 323.566 1045.79 322.427 1044.46 321.175C1037.31 314.434 1032.09 306.5 1029.51 296.935C1028.8 294.303 1028.33 291.628 1028.18 288.907C1028.07 287.004 1027.92 285.083 1028.05 283.189C1028.41 278.152 1029.14 273.163 1030.62 268.311L1030.7 268.198C1030.84 268.389 1031.05 268.558 1031.12 268.774C1032.56 273.021 1033.99 277.271 1035.42 281.523C1039.89 294.886 1044.36 308.253 1048.84 321.613C1048.93 321.874 1049.16 322.088 1049.32 322.323L1048.61 324.757Z" fill="#45A538"/>
<path fill-rule="evenodd" clip-rule="evenodd" d="M1070.18 269.63C1069.04 269.799 1067.91 269.961 1066.78 270.135C1064.21 270.533 1061.64 270.929 1059.08 271.336C1056.93 271.678 1054.78 272.035 1052.63 272.387L1051.32 272.612L1051.31 271.755C1051.26 271.051 1051.19 270.348 1051.18 269.643C1051.12 265.152 1051.09 260.661 1051.03 256.17C1051 253.359 1050.95 250.549 1050.89 247.738C1050.85 245.992 1050.82 244.245 1050.74 242.501C1050.7 241.564 1050.54 240.632 1050.48 239.695C1050.45 239.156 1050.5 238.613 1050.51 238.072C1051.18 239.37 1051.83 240.678 1052.52 241.966C1053.61 244.002 1055.34 245.502 1056.9 247.14C1063.07 253.61 1067.45 261.133 1070.18 269.63Z" fill="#46A037"/>
<path fill-rule="evenodd" clip-rule="evenodd" d="M1051.32 300.735C1051.39 300.714 1051.5 300.707 1051.51 300.669C1051.91 299.29 1053.15 299.496 1054.15 299.324C1056.96 298.837 1059.78 298.397 1062.6 297.941C1065.33 297.499 1068.05 297.055 1070.78 296.626C1071.11 296.575 1071.44 296.617 1071.77 296.616C1071.26 298.436 1070.86 300.295 1070.22 302.065C1069.48 304.073 1068.59 306.033 1067.65 307.954C1066.24 310.819 1064.49 313.506 1062.44 315.958C1060.87 317.85 1059.11 319.599 1057.36 321.326C1056.38 322.281 1055.24 323.059 1054.17 323.917L1053.9 323.729L1052.9 322.878L1051.87 320.621C1051.17 317.988 1050.78 315.28 1050.73 312.555L1050.75 312.095L1050.89 310.106C1050.93 309.428 1051 308.75 1051.03 308.069C1051.13 305.624 1051.22 303.18 1051.32 300.735Z" fill="#409433"/>
<path fill-rule="evenodd" clip-rule="evenodd" d="M1051.32 300.735C1051.22 303.18 1051.13 305.624 1051.03 308.07C1051 308.75 1050.94 309.428 1050.89 310.107L1050.26 310.344C1048.87 306.243 1047.48 302.186 1046.11 298.118C1043.86 291.388 1041.63 284.647 1039.38 277.915C1037.56 272.482 1035.73 267.053 1033.89 261.628C1033.8 261.374 1033.55 261.175 1033.38 260.95L1037.39 253.57C1037.53 253.81 1037.71 254.034 1037.8 254.291C1039.66 259.786 1041.51 265.283 1043.35 270.784C1045.74 277.942 1048.12 285.105 1050.5 292.263C1050.6 292.549 1050.76 292.813 1050.91 293.133L1051.46 292.494L1051.32 300.735Z" fill="#4FAA41"/>
<path fill-rule="evenodd" clip-rule="evenodd" d="M1033.38 260.951C1033.55 261.176 1033.8 261.374 1033.89 261.628C1035.73 267.053 1037.56 272.483 1039.38 277.916C1041.63 284.648 1043.86 291.388 1046.11 298.119C1047.48 302.186 1048.87 306.244 1050.26 310.345L1050.89 310.108L1050.75 312.097L1050.62 312.555C1050.4 314.733 1050.22 316.915 1049.96 319.088C1049.82 320.176 1049.54 321.245 1049.32 322.323C1049.16 322.088 1048.93 321.874 1048.84 321.613C1044.36 308.253 1039.89 294.887 1035.42 281.523C1034 277.271 1032.56 273.021 1031.12 268.774C1031.05 268.558 1030.84 268.39 1030.7 268.199L1033.38 260.951Z" fill="#4AA73C"/>
<path fill-rule="evenodd" clip-rule="evenodd" d="M1051.46 292.494L1050.91 293.134C1050.76 292.813 1050.6 292.549 1050.5 292.263C1048.12 285.105 1045.74 277.942 1043.35 270.785C1041.51 265.284 1039.66 259.786 1037.8 254.292C1037.71 254.034 1037.53 253.81 1037.39 253.571L1042.36 247.041C1042.51 247.25 1042.74 247.436 1042.82 247.671C1044.2 251.706 1045.56 255.745 1046.92 259.787C1048.19 263.562 1049.44 267.342 1050.72 271.111C1050.81 271.364 1051.11 271.543 1051.31 271.756L1051.32 272.613C1051.36 279.239 1051.41 285.867 1051.46 292.494Z" fill="#57AE47"/>
<path fill-rule="evenodd" clip-rule="evenodd" d="M1051.31 271.755C1051.11 271.541 1050.81 271.363 1050.72 271.11C1049.44 267.341 1048.19 263.56 1046.92 259.786C1045.56 255.744 1044.2 251.705 1042.82 247.67C1042.74 247.435 1042.52 247.249 1042.36 247.04C1043.97 245.459 1045.54 243.822 1047.22 242.314C1048.71 240.975 1049.91 239.538 1049.96 237.421C1049.97 237.334 1050.01 237.246 1050.08 237L1050.51 238.071C1050.5 238.613 1050.45 239.155 1050.48 239.693C1050.55 240.63 1050.7 241.562 1050.74 242.499C1050.82 244.243 1050.86 245.99 1050.89 247.737C1050.95 250.547 1051 253.357 1051.03 256.169C1051.09 260.66 1051.13 265.151 1051.18 269.642C1051.19 270.348 1051.26 271.05 1051.31 271.755Z" fill="#60B24F"/>
<path fill-rule="evenodd" clip-rule="evenodd" d="M1049.32 322.323C1049.54 321.245 1049.82 320.175 1049.95 319.088C1050.22 316.916 1050.4 314.733 1050.62 312.555L1050.68 312.547L1050.73 312.556C1050.78 315.281 1051.17 317.989 1051.87 320.621C1051.73 320.812 1051.52 320.981 1051.45 321.196C1050.85 322.877 1050.29 324.571 1049.69 326.251C1049.61 326.481 1049.38 326.66 1049.22 326.861L1048.61 324.758L1049.32 322.323Z" fill="#A9AA88"/>
<path fill-rule="evenodd" clip-rule="evenodd" d="M1049.22 326.862C1049.38 326.66 1049.61 326.481 1049.69 326.252C1050.29 324.571 1050.85 322.878 1051.45 321.197C1051.52 320.982 1051.73 320.812 1051.87 320.622L1052.9 322.88C1052.7 323.168 1052.42 323.428 1052.3 323.75L1050.33 329.537C1050.25 329.769 1049.98 329.933 1049.79 330.129L1049.22 326.862Z" fill="#B6B598"/>
<path fill-rule="evenodd" clip-rule="evenodd" d="M1049.79 330.128C1049.98 329.933 1050.25 329.768 1050.33 329.536L1052.3 323.749C1052.42 323.428 1052.7 323.167 1052.9 322.879L1053.9 323.729C1053.42 324.205 1053.15 324.754 1053.31 325.448L1053.01 326.439C1052.87 326.608 1052.67 326.756 1052.6 326.95C1051.91 328.92 1051.26 330.901 1050.57 332.871C1050.48 333.121 1050.23 333.317 1050.06 333.537C1049.97 332.4 1049.88 331.265 1049.79 330.128Z" fill="#C2C1A7"/>
<path fill-rule="evenodd" clip-rule="evenodd" d="M1050.06 333.538C1050.23 333.317 1050.48 333.121 1050.57 332.872C1051.26 330.903 1051.92 328.922 1052.6 326.951C1052.67 326.758 1052.87 326.609 1053.01 326.439L1052.59 330.985C1052.48 331.114 1052.32 331.226 1052.26 331.377C1051.79 332.7 1051.35 334.033 1050.88 335.356C1050.78 335.629 1050.59 335.87 1050.45 336.125C1050.32 335.955 1050.08 335.791 1050.07 335.614C1050.03 334.925 1050.06 334.23 1050.06 333.538Z" fill="#CECDB7"/>
<path fill-rule="evenodd" clip-rule="evenodd" d="M1050.44 336.125C1050.59 335.869 1050.78 335.628 1050.88 335.356C1051.35 334.034 1051.79 332.7 1052.26 331.376C1052.32 331.226 1052.48 331.115 1052.59 330.985L1052.6 333.97L1051.6 336.531L1050.44 336.125Z" fill="#DBDAC7"/>
<path fill-rule="evenodd" clip-rule="evenodd" d="M1051.6 336.531L1052.6 333.97L1052.81 337L1051.6 336.531Z" fill="#EBE9DC"/>
<path fill-rule="evenodd" clip-rule="evenodd" d="M1053.31 325.449C1053.15 324.754 1053.42 324.204 1053.9 323.729L1054.17 323.918L1053.31 325.449Z" fill="#CECDB7"/>
<path fill-rule="evenodd" clip-rule="evenodd" d="M1050.73 312.557L1050.67 312.548L1050.62 312.556L1050.75 312.098L1050.73 312.557Z" fill="#4FAA41"/>
<path d="M1200 141.463C1196.36 142.388 1194.11 141.503 1192.1 138.474C1187.56 131.691 1182.56 125.219 1177.74 118.627C1177.12 117.774 1176.47 116.938 1175.66 115.877C1169.95 123.577 1164.25 130.91 1158.9 138.538C1156.98 141.264 1154.97 142.451 1151.4 141.487L1172.87 112.689L1152.88 86.6811C1156.32 86.0115 1158.7 86.3543 1160.8 89.4309C1165.45 96.2219 1170.58 102.686 1175.7 109.525C1180.84 102.71 1185.91 96.2378 1190.69 89.5106C1192.61 86.7847 1194.68 85.7485 1198.13 86.7528C1195.52 90.22 1192.96 93.6314 1190.38 97.019C1186.9 101.586 1183.49 106.209 1179.88 110.681C1178.6 112.275 1178.81 113.311 1179.96 114.817C1186.62 123.577 1193.21 132.424 1200 141.463ZM1100.02 112.211C1100.6 109.334 1100.98 106.4 1101.78 103.579C1106.56 86.4977 1126.19 79.3959 1139.67 89.9809C1147.56 96.19 1149.53 104.942 1149.13 114.809H1104.63C1103.96 132.512 1116.71 143.201 1132.97 137.749C1138.67 135.836 1142.03 131.372 1143.71 125.793C1144.56 122.995 1145.98 122.557 1148.61 123.354C1147.26 130.336 1144.21 136.171 1137.82 139.821C1128.25 145.289 1114.59 143.52 1107.4 135.924C1103.16 131.46 1101.36 125.904 1100.56 119.903C1100.44 118.946 1100.19 118.006 1100 117.057C1100.02 115.442 1100.02 113.826 1100.02 112.211ZM1104.71 111.023H1144.93C1144.67 98.2225 1136.69 89.1281 1125.79 89.0483C1113.82 88.9527 1105.22 97.832 1104.71 111.023Z" fill="white"/>
<path d="M344.38 163.665C342.894 163.488 341.334 163.26 340.917 163.157C340.301 163.011 339.683 162.881 339.061 162.767C338.351 162.629 337.647 162.464 336.95 162.273C333.712 161.345 333.48 161.27 331.039 160.272C328.793 159.358 324.655 157.221 323.24 156.249C322.852 155.981 322.49 155.764 322.434 155.764C322.38 155.764 321.473 155.128 320.42 154.35C313.726 149.4 308.7 143.391 305.068 135.99C304.443 134.719 303.933 133.591 303.933 133.485C303.933 133.381 303.821 133.091 303.683 132.848C303.4 132.341 302.996 131.25 302.67 130.123C302.53 129.643 302.367 129.171 302.182 128.708C302.029 128.349 301.907 127.912 301.907 127.735C301.907 127.558 301.754 126.982 301.569 126.452C301.383 125.925 301.233 125.303 301.233 125.07C301.233 124.84 301.087 124.04 300.906 123.294C300.467 121.453 300 116.682 300 114.009C300 111.339 300.467 106.568 300.906 104.727C301.086 103.981 301.233 103.167 301.233 102.917C301.233 102.666 301.346 102.176 301.483 101.824C301.623 101.475 301.803 100.847 301.886 100.429C301.972 100.012 302.167 99.2921 302.326 98.8255L302.786 97.4786C303.125 96.4696 303.439 95.6159 303.589 95.2834C303.675 95.0977 304.01 94.3392 304.336 93.5978C304.864 92.4 305.996 90.1409 306.658 88.9586C306.899 88.5255 306.991 88.3819 308.297 86.3428C310.366 83.1059 313.902 79.0785 317.194 76.2075C318.354 75.1954 322.23 72.2566 322.404 72.2566C322.452 72.2566 322.818 72.0373 323.218 71.7689C324.271 71.065 325.303 70.4672 326.648 69.7938C327.131 69.5552 327.609 69.3073 328.082 69.0501C328.305 68.9221 328.723 68.7301 330.868 67.7703C331.341 67.5596 331.85 67.3676 333.318 66.8549C333.642 66.7426 334.291 66.5046 334.755 66.3305C335.223 66.1573 335.772 66.0137 335.976 66.0137C336.178 66.0137 336.708 65.8733 337.154 65.7C337.6 65.526 338.408 65.3278 338.954 65.2607C339.498 65.1967 340.22 65.0445 340.56 64.9251C340.895 64.8096 341.817 64.6598 342.607 64.5935C343.636 64.5006 344.663 64.3796 345.686 64.2306C347.785 63.9231 352.35 63.9231 354.428 64.2306C355.41 64.3713 356.395 64.4871 357.382 64.5779C358.126 64.6395 359.075 64.7948 359.493 64.9228C359.911 65.0476 360.635 65.2037 361.099 65.2607C361.563 65.3223 362.344 65.5143 362.834 65.6906C363.327 65.8701 363.884 66.0137 364.076 66.0137C364.269 66.0137 364.665 66.1206 364.955 66.2548C365.248 66.3859 365.868 66.6052 366.335 66.7426C366.799 66.883 367.595 67.1601 368.108 67.3645C368.617 67.5682 369.301 67.8366 369.627 67.9584C370.229 68.1847 374.674 70.4064 375.278 70.7848C380.185 73.8415 382.709 75.8384 386.102 79.3407C390.194 83.5655 392.91 87.5891 395.674 93.512C395.87 93.9303 396.168 94.5491 396.339 94.8839C396.507 95.2226 396.648 95.619 396.648 95.7657C396.648 95.9139 396.788 96.3588 396.962 96.756C397.432 97.8352 397.834 99.0635 398.024 100.002C398.118 100.463 398.292 101.032 398.411 101.267C398.53 101.501 398.67 102.097 398.726 102.584C398.78 103.071 398.942 103.87 399.08 104.355C399.876 107.111 400.272 115.229 399.79 118.819C399.647 119.886 399.486 121.176 399.431 121.685C399.339 122.556 398.878 124.809 398.484 126.324L398.078 127.927C397.313 131.015 395.421 135.414 393.111 139.484C392.195 141.099 389.126 145.468 388.546 145.979C388.494 146.025 388.235 146.331 387.972 146.653C387.71 146.979 386.868 147.891 386.105 148.677C382.745 152.143 380.036 154.286 375.278 157.237C374.714 157.587 369.93 159.922 369.035 160.285C368.571 160.471 367.796 160.784 367.314 160.979C366.835 161.172 366.301 161.334 366.133 161.337C365.965 161.339 365.523 161.489 365.151 161.669C364.779 161.848 364.305 161.998 364.095 162.001C363.887 162.004 363.28 162.151 362.746 162.327C362.213 162.507 361.47 162.699 361.098 162.756C360.726 162.815 359.93 162.973 359.325 163.108C358.722 163.242 356.896 163.504 355.274 163.69C351.654 164.111 347.998 164.103 344.38 163.665ZM348.054 153.911C348.288 153.728 348.53 153.365 348.594 153.11C348.734 152.545 371.43 107.092 371.858 106.522C372.218 106.041 372.251 105.27 371.922 104.998C371.748 104.852 369.575 104.806 363.774 104.816C359.423 104.825 355.765 104.828 355.645 104.825C355.469 104.819 355.432 101.914 355.45 89.4736C355.463 81.0325 355.423 74.0491 355.362 73.9523C355.301 73.854 355.063 73.7752 354.831 73.7752C354.504 73.7752 354.352 73.9156 354.151 74.4057C353.772 75.3172 352.725 77.3867 347.63 87.2699C346.571 89.3209 345.516 91.3733 344.462 93.4269C343.559 95.1921 342.134 97.9632 341.301 99.584C339.057 103.941 336.819 108.3 334.584 112.662C330.731 120.182 330.265 121.078 330.099 121.276C329.779 121.663 329.604 122.556 329.785 122.892C329.949 123.199 330.276 123.212 338.411 123.199C343.062 123.194 346.897 123.218 346.937 123.254C347.044 123.364 347.004 152.369 346.894 153.06C346.821 153.515 346.87 153.755 347.078 153.963C347.437 154.322 347.535 154.319 348.054 153.911Z" fill="#049688"/>
<path d="M633.667 337C642.891 337 650.333 329.558 650.333 320.334V303.667H633.667C624.442 303.667 617 311.109 617 320.334C617 329.558 624.442 337 633.667 337Z" fill="#0ACF83"/>
<path d="M617 287C617 277.775 624.442 270.333 633.667 270.333H650.333V303.666H633.667C624.442 303.666 617 296.224 617 287Z" fill="#A259FF"/>
<path d="M617 253.667C617 244.442 624.442 237 633.667 237H650.333V270.333H633.667C624.442 270.333 617 262.891 617 253.667Z" fill="#F24E1E"/>
<path d="M650.333 237H667C676.225 237 683.667 244.442 683.667 253.667C683.667 262.891 676.225 270.333 667 270.333H650.333V237Z" fill="#FF7262"/>
<path d="M683.667 287C683.667 296.224 676.225 303.666 667 303.666C657.775 303.666 650.333 296.224 650.333 287C650.333 277.775 657.775 270.333 667 270.333C676.225 270.333 683.667 277.775 683.667 287Z" fill="#1ABCFE"/>
<path d="M448.594 337L431.6 327.094V268.68L406 283.531L406.062 261.406L448.594 237V337ZM452.414 237V337L469.408 327.094V298.961L482.239 306.406L482.161 287.164L469.408 279.852V268.68L495 283.531L494.938 261.406L452.414 237Z" fill="#FF6F00"/>
<path d="M279.4 266.248L271.987 273.66C284.154 285.827 284.154 305.406 271.987 317.411C259.821 329.577 240.242 329.577 228.237 317.411C216.07 305.245 216.07 285.666 228.237 273.66L247.574 254.323L250.313 251.584V237L221.146 266.167C204.951 282.362 204.951 308.548 221.146 324.824C237.341 341.099 263.527 341.019 279.48 324.824C295.675 308.548 295.675 282.523 279.4 266.248Z" fill="#EE4C2C"/>
<path d="M270.27 259.152C270.326 256.171 267.954 253.71 264.973 253.655C261.992 253.6 259.531 255.972 259.476 258.952C259.421 261.933 261.792 264.394 264.773 264.45C267.754 264.505 270.215 262.133 270.27 259.152Z" fill="#EE4C2C"/>
<path d="M549.865 64.0008C545.786 64.0201 541.893 64.3669 538.465 64.9737C528.369 66.7571 526.537 70.4902 526.537 77.3758V86.4679H550.394V89.4987H517.583C510.65 89.4987 504.579 93.6656 502.68 101.595C500.489 110.682 500.392 116.353 502.68 125.841C504.375 132.905 508.425 137.936 515.359 137.936H523.563V127.036C523.563 119.162 530.375 112.216 538.466 112.216H562.295C568.929 112.216 574.223 106.754 574.223 100.093V77.3767C574.223 70.9105 568.768 66.0538 562.295 64.9746C558.195 64.2925 553.943 63.9824 549.865 64.0008ZM536.964 71.3133C539.427 71.3133 541.441 73.3586 541.441 75.8744C541.441 78.3796 539.428 80.4055 536.964 80.4055C534.49 80.4055 532.488 78.3796 532.488 75.8744C532.487 73.3586 534.49 71.3133 536.964 71.3133Z" fill="url(#paint2_linear_2266_88)"/>
<path d="M577.198 89.498V100.093C577.198 108.305 570.234 115.217 562.294 115.217H538.465C531.938 115.217 526.537 120.804 526.537 127.341V150.059C526.537 156.524 532.158 160.327 538.465 162.181C546.016 164.401 553.258 164.802 562.294 162.181C568.3 160.441 574.222 156.942 574.222 150.059V140.966H550.394V137.935H586.152C593.085 137.935 595.67 133.099 598.081 125.84C600.572 118.367 600.465 111.18 598.081 101.594C596.367 94.6909 593.095 89.4971 586.152 89.4971L577.198 89.498ZM563.795 147.028C566.269 147.028 568.272 149.054 568.272 151.561C568.272 154.075 566.268 156.12 563.795 156.12C561.331 156.12 559.319 154.075 559.319 151.561C559.319 149.054 561.331 147.028 563.795 147.028Z" fill="url(#paint3_linear_2266_88)"/>
<path d="M1298.11 282.546L1254.45 238.886C1251.94 236.371 1247.86 236.371 1245.34 238.886L1236.28 247.953L1247.78 259.454C1250.45 258.552 1253.52 259.157 1255.65 261.287C1257.79 263.431 1258.39 266.521 1257.46 269.203L1268.55 280.288C1271.23 279.364 1274.33 279.961 1276.47 282.106C1279.46 285.098 1279.46 289.949 1276.47 292.943C1275.75 293.654 1274.91 294.219 1273.98 294.605C1273.05 294.99 1272.05 295.188 1271.05 295.188C1270.04 295.188 1269.04 294.99 1268.11 294.605C1267.18 294.219 1266.34 293.654 1265.63 292.943C1264.56 291.873 1263.83 290.511 1263.53 289.028C1263.24 287.544 1263.38 286.007 1263.96 284.608L1253.62 274.272L1253.62 301.476C1254.37 301.845 1255.06 302.334 1255.65 302.924C1258.64 305.916 1258.64 310.765 1255.65 313.763C1252.65 316.755 1247.8 316.755 1244.81 313.763C1241.82 310.766 1241.82 305.917 1244.81 302.924C1245.53 302.206 1246.38 301.638 1247.32 301.252V273.796C1246.38 273.412 1245.53 272.844 1244.81 272.124C1242.55 269.858 1242 266.531 1243.16 263.746L1231.82 252.407L1201.89 282.344C1200.68 283.552 1200 285.191 1200 286.899C1200 288.607 1200.68 290.246 1201.89 291.454L1245.55 335.114C1248.06 337.629 1252.14 337.629 1254.66 335.114L1298.11 291.657C1299.32 290.448 1300 288.81 1300 287.101C1300 285.393 1299.32 283.754 1298.11 282.546Z" fill="#F34F29"/>
<path d="M900 64H999.999V164H900V64Z" fill="#F0DB4F"/>
<path d="M991.815 140.15C991.083 135.588 988.108 131.756 979.296 128.183C976.235 126.776 972.823 125.769 971.806 123.449C971.445 122.099 971.397 121.338 971.625 120.521C972.281 117.869 975.447 117.042 977.956 117.803C979.572 118.344 981.102 119.59 982.024 121.576C986.339 118.782 986.331 118.801 989.344 116.88C988.241 115.17 987.652 114.381 986.93 113.649C984.334 110.75 980.798 109.257 975.142 109.371L972.196 109.752C969.373 110.466 966.683 111.948 965.105 113.934C960.371 119.305 961.721 128.706 967.482 132.575C973.157 136.834 981.493 137.803 982.558 141.786C983.594 146.662 978.974 148.24 974.383 147.679C970.999 146.976 969.117 145.256 967.082 142.128C963.337 144.296 963.337 144.296 959.487 146.51C960.4 148.506 961.36 149.41 962.89 151.139C970.134 158.487 988.261 158.126 991.512 147.004C991.644 146.623 992.519 144.076 991.815 140.15ZM954.363 109.96H945.009L944.971 134.142C944.971 139.285 945.237 143.999 944.401 145.444C943.032 148.287 939.486 147.934 937.87 147.383C936.226 146.575 935.389 145.425 934.42 143.8C934.154 143.334 933.955 142.973 933.887 142.945L926.283 147.602C927.547 150.197 929.41 152.45 931.796 153.913C935.36 156.053 940.151 156.708 945.161 155.558C948.422 154.608 951.235 152.641 952.708 149.646C954.838 145.72 954.381 140.968 954.362 135.712C954.41 127.136 954.363 118.563 954.363 109.96Z" fill="#323330"/>
<path d="M851.949 237.644C851.231 237.233 850.419 237.017 849.592 237.017C848.765 237.017 847.952 237.233 847.234 237.644L808.312 260.249C806.832 261.087 806 262.667 806 264.343V309.646C806 311.32 806.924 312.902 808.311 313.74L847.233 336.344C847.95 336.756 848.763 336.972 849.59 336.972C850.418 336.972 851.231 336.756 851.948 336.344L890.87 313.739C892.35 312.902 893.181 311.32 893.181 309.645V264.343C893.181 262.668 892.257 261.088 890.87 260.249L851.949 237.644Z" fill="url(#paint4_linear_2266_88)"/>
<path d="M890.964 260.25L851.858 237.645C851.474 237.449 851.071 237.294 850.655 237.18L806.834 312.623C807.196 313.069 807.634 313.447 808.128 313.74L847.235 336.345C848.344 336.996 849.638 337.182 850.84 336.81L891.981 261.087C891.711 260.734 891.363 260.447 890.964 260.25Z" fill="url(#paint5_linear_2266_88)"/>
<path d="M890.965 313.738C892.074 313.087 892.906 311.971 893.276 310.762L850.471 237.085C849.362 236.899 848.159 236.992 847.143 237.643L808.313 260.156L850.193 336.995C850.748 336.901 851.396 336.715 851.951 336.437L890.965 313.738Z" fill="url(#paint6_linear_2266_88)"/>
<defs>
<linearGradient id="paint0_linear_2266_88" x1="749.204" y1="112.927" x2="785.111" y2="127.986" gradientUnits="userSpaceOnUse">
<stop stop-color="#249361"/>
<stop offset="1" stop-color="#3ECF8E"/>
</linearGradient>
<linearGradient id="paint1_linear_2266_88" x1="733.284" y1="91.13" x2="749.66" y2="121.957" gradientUnits="userSpaceOnUse">
<stop/>
<stop offset="1" stop-opacity="0"/>
</linearGradient>
<linearGradient id="paint2_linear_2266_88" x1="498.608" y1="66.8437" x2="553.633" y2="113.768" gradientUnits="userSpaceOnUse">
<stop stop-color="#5A9FD4"/>
<stop offset="1" stop-color="#306998"/>
</linearGradient>
<linearGradient id="paint3_linear_2266_88" x1="574.335" y1="142.937" x2="554.602" y2="115.265" gradientUnits="userSpaceOnUse">
<stop stop-color="#FFD43B"/>
<stop offset="1" stop-color="#FFE873"/>
</linearGradient>
<linearGradient id="paint4_linear_2266_88" x1="865.442" y1="254.478" x2="829.896" y2="326.54" gradientUnits="userSpaceOnUse">
<stop stop-color="#3F873F"/>
<stop offset="0.33" stop-color="#3F8B3D"/>
<stop offset="0.637" stop-color="#3E9638"/>
<stop offset="0.934" stop-color="#3DA92E"/>
<stop offset="1" stop-color="#3DAE2B"/>
</linearGradient>
<linearGradient id="paint5_linear_2266_88" x1="843.678" y1="292.286" x2="942.854" y2="219.46" gradientUnits="userSpaceOnUse">
<stop offset="0.138" stop-color="#3F873F"/>
<stop offset="0.402" stop-color="#52A044"/>
<stop offset="0.713" stop-color="#64B749"/>
<stop offset="0.908" stop-color="#6ABF4B"/>
</linearGradient>
<linearGradient id="paint6_linear_2266_88" x1="804.576" y1="286.98" x2="894.638" y2="286.98" gradientUnits="userSpaceOnUse">
<stop offset="0.092" stop-color="#6ABF4B"/>
<stop offset="0.287" stop-color="#64B749"/>
<stop offset="0.598" stop-color="#52A044"/>
<stop offset="0.862" stop-color="#3F873F"/>
</linearGradient>
</defs>
</svg>
