<svg width="1500" height="373" viewBox="0 0 1500 373" fill="none" xmlns="http://www.w3.org/2000/svg">
<path d="M200 173L286.603 223V323L200 373L113.397 323V223L200 173Z" fill="black"/>
<path d="M300 0L386.603 50V150L300 200L213.397 150V50L300 0Z" fill="black"/>
<path d="M100 0L186.603 50V150L100 200L13.3975 150V50L100 0Z" fill="black"/>
<path d="M500 0L586.603 50V150L500 200L413.397 150V50L500 0Z" fill="black"/>
<path d="M700 0L786.603 50V150L700 200L613.397 150V50L700 0Z" fill="black"/>
<path d="M800 173L886.603 223V323L800 373L713.397 323V223L800 173Z" fill="black"/>
<path d="M900 0L986.603 50V150L900 200L813.397 150V50L900 0Z" fill="black"/>
<path d="M1000 173L1086.6 223V323L1000 373L913.397 323V223L1000 173Z" fill="black"/>
<path d="M1100 0L1186.6 50V150L1100 200L1013.4 150V50L1100 0Z" fill="black"/>
<path d="M1300 0L1386.6 50V150L1300 200L1213.4 150V50L1300 0Z" fill="black"/>
<path d="M1400 173L1486.6 223V323L1400 373L1313.4 323V223L1400 173Z" fill="black"/>
<path d="M1200 173L1286.6 223V323L1200 373L1113.4 323V223L1200 173Z" fill="black"/>
<path d="M600 173L686.603 223V323L600 373L513.397 323V223L600 173Z" fill="black"/>
<path d="M400 173L486.603 223V323L400 373L313.397 323V223L400 173Z" fill="black"/>
<path d="M907.898 148.339C905.346 151.555 900.16 149.794 900.103 145.685L899.2 85.6006H939.604C946.92 85.6006 951 94.0516 946.45 99.7799L907.898 148.339Z" fill="url(#paint0_linear_2268_22)"/>
<path d="M907.898 148.339C905.346 151.555 900.16 149.794 900.103 145.685L899.2 85.6006H939.604C946.92 85.6006 951 94.0516 946.45 99.7799L907.898 148.339Z" fill="url(#paint1_linear_2268_22)" fill-opacity="0.2"/>
<path d="M891.465 51.6612C894.017 48.4447 899.203 50.2065 899.26 54.3144L899.657 114.4H859.759C852.443 114.4 848.363 105.949 852.912 100.22L891.465 51.6612Z" fill="#3ECF8E"/>
<path fill-rule="evenodd" clip-rule="evenodd" d="M1020.18 255.63C1021.49 259.436 1022.44 263.322 1022.75 267.35C1023.14 272.347 1022.96 277.309 1021.91 282.224C1021.88 282.359 1021.82 282.486 1021.77 282.617C1021.44 282.618 1021.11 282.577 1020.78 282.627C1018.05 283.056 1015.33 283.5 1012.6 283.942C1009.78 284.399 1006.96 284.837 1004.15 285.325C1003.15 285.497 1001.92 285.292 1001.51 286.671C1001.5 286.708 1001.39 286.715 1001.32 286.736L1001.46 278.496L1001.32 258.613L1002.63 258.388C1004.78 258.036 1006.93 257.679 1009.08 257.338C1011.64 256.93 1014.21 256.534 1016.78 256.137C1017.91 255.96 1019.04 255.799 1020.18 255.63Z" fill="#439934"/>
<path fill-rule="evenodd" clip-rule="evenodd" d="M998.608 310.757C997.223 309.566 995.789 308.427 994.461 307.175C987.314 300.434 982.087 292.5 979.513 282.935C978.803 280.303 978.33 277.628 978.179 274.907C978.072 273.004 977.918 271.083 978.052 269.189C978.411 264.152 979.139 259.163 980.616 254.311L980.697 254.198C980.841 254.389 981.047 254.558 981.12 254.774C982.562 259.021 983.994 263.271 985.418 267.523C989.893 280.886 994.361 294.253 998.844 307.613C998.931 307.874 999.158 308.088 999.322 308.323L998.608 310.757Z" fill="#45A538"/>
<path fill-rule="evenodd" clip-rule="evenodd" d="M1020.18 255.63C1019.04 255.799 1017.91 255.961 1016.78 256.135C1014.21 256.533 1011.64 256.929 1009.08 257.336C1006.93 257.678 1004.78 258.035 1002.63 258.387L1001.32 258.612L1001.31 257.755C1001.26 257.051 1001.19 256.348 1001.18 255.643C1001.12 251.152 1001.09 246.661 1001.03 242.17C1001 239.359 1000.95 236.549 1000.89 233.738C1000.85 231.992 1000.82 230.245 1000.74 228.501C1000.7 227.564 1000.54 226.632 1000.48 225.695C1000.45 225.156 1000.5 224.613 1000.51 224.072C1001.18 225.37 1001.83 226.678 1002.52 227.966C1003.61 230.002 1005.34 231.502 1006.9 233.14C1013.07 239.61 1017.45 247.133 1020.18 255.63Z" fill="#46A037"/>
<path fill-rule="evenodd" clip-rule="evenodd" d="M1001.32 286.735C1001.39 286.714 1001.5 286.707 1001.51 286.669C1001.91 285.29 1003.15 285.496 1004.15 285.324C1006.96 284.837 1009.78 284.397 1012.6 283.941C1015.33 283.499 1018.05 283.055 1020.78 282.626C1021.11 282.575 1021.44 282.617 1021.77 282.616C1021.26 284.436 1020.86 286.295 1020.22 288.065C1019.48 290.073 1018.59 292.033 1017.65 293.954C1016.24 296.819 1014.49 299.506 1012.44 301.958C1010.87 303.85 1009.11 305.599 1007.36 307.326C1006.38 308.281 1005.24 309.059 1004.17 309.917L1003.9 309.729L1002.9 308.878L1001.87 306.621C1001.17 303.988 1000.78 301.28 1000.73 298.555L1000.75 298.095L1000.89 296.106C1000.93 295.428 1001 294.75 1001.03 294.069C1001.13 291.624 1001.22 289.18 1001.32 286.735Z" fill="#409433"/>
<path fill-rule="evenodd" clip-rule="evenodd" d="M1001.32 286.735C1001.22 289.18 1001.13 291.624 1001.03 294.07C1001 294.75 1000.94 295.428 1000.89 296.107L1000.26 296.344C998.869 292.243 997.475 288.186 996.112 284.118C993.857 277.388 991.63 270.647 989.379 263.915C987.56 258.482 985.729 253.053 983.886 247.628C983.8 247.374 983.552 247.175 983.38 246.95L987.394 239.57C987.531 239.81 987.713 240.034 987.8 240.291C989.659 245.786 991.509 251.283 993.349 256.784C995.74 263.942 998.116 271.105 1000.5 278.263C1000.6 278.549 1000.76 278.813 1000.91 279.133L1001.46 278.494L1001.32 286.735Z" fill="#4FAA41"/>
<path fill-rule="evenodd" clip-rule="evenodd" d="M983.381 246.951C983.553 247.176 983.8 247.374 983.886 247.628C985.73 253.053 987.561 258.483 989.379 263.916C991.631 270.648 993.858 277.388 996.113 284.119C997.475 288.186 998.869 292.244 1000.26 296.345L1000.89 296.108L1000.75 298.097L1000.62 298.555C1000.4 300.733 1000.22 302.915 999.955 305.088C999.822 306.176 999.538 307.245 999.322 308.323C999.16 308.088 998.932 307.874 998.844 307.613C994.362 294.253 989.893 280.887 985.419 267.523C983.995 263.271 982.563 259.021 981.121 254.774C981.048 254.558 980.842 254.39 980.698 254.199L983.381 246.951Z" fill="#4AA73C"/>
<path fill-rule="evenodd" clip-rule="evenodd" d="M1001.46 278.494L1000.91 279.134C1000.76 278.813 1000.6 278.549 1000.5 278.263C998.115 271.105 995.739 263.942 993.348 256.785C991.508 251.284 989.658 245.786 987.799 240.292C987.713 240.034 987.531 239.81 987.393 239.571L992.357 233.041C992.514 233.25 992.737 233.436 992.818 233.671C994.196 237.706 995.562 241.745 996.919 245.787C998.188 249.562 999.437 253.342 1000.72 257.111C1000.81 257.364 1001.11 257.543 1001.31 257.756L1001.32 258.613C1001.36 265.239 1001.41 271.867 1001.46 278.494Z" fill="#57AE47"/>
<path fill-rule="evenodd" clip-rule="evenodd" d="M1001.31 257.755C1001.11 257.541 1000.81 257.363 1000.72 257.11C999.439 253.341 998.189 249.56 996.921 245.786C995.563 241.744 994.197 237.705 992.819 233.67C992.738 233.435 992.515 233.249 992.359 233.04C993.973 231.459 995.537 229.822 997.216 228.314C998.709 226.975 999.909 225.538 999.964 223.421C999.967 223.334 1000.01 223.246 1000.08 223L1000.51 224.071C1000.5 224.613 1000.45 225.155 1000.48 225.693C1000.55 226.63 1000.7 227.562 1000.74 228.499C1000.82 230.243 1000.86 231.99 1000.89 233.737C1000.95 236.547 1001 239.357 1001.03 242.169C1001.09 246.66 1001.13 251.151 1001.18 255.642C1001.19 256.348 1001.26 257.05 1001.31 257.755Z" fill="#60B24F"/>
<path fill-rule="evenodd" clip-rule="evenodd" d="M999.321 308.323C999.536 307.245 999.82 306.175 999.954 305.088C1000.22 302.916 1000.4 300.733 1000.62 298.555L1000.68 298.547L1000.73 298.556C1000.78 301.281 1001.17 303.989 1001.87 306.621C1001.73 306.812 1001.52 306.981 1001.45 307.196C1000.85 308.877 1000.29 310.571 999.69 312.251C999.608 312.481 999.381 312.66 999.22 312.861L998.607 310.758L999.321 308.323Z" fill="#A9AA88"/>
<path fill-rule="evenodd" clip-rule="evenodd" d="M999.221 312.862C999.381 312.66 999.61 312.481 999.691 312.252C1000.29 310.571 1000.85 308.878 1001.45 307.197C1001.52 306.982 1001.73 306.812 1001.87 306.622L1002.9 308.88C1002.7 309.168 1002.42 309.428 1002.3 309.75L1000.33 315.537C1000.25 315.769 999.976 315.933 999.79 316.129L999.221 312.862Z" fill="#B6B598"/>
<path fill-rule="evenodd" clip-rule="evenodd" d="M999.79 316.128C999.977 315.933 1000.25 315.768 1000.33 315.536L1002.3 309.749C1002.42 309.428 1002.7 309.167 1002.9 308.879L1003.9 309.729C1003.42 310.205 1003.15 310.754 1003.31 311.448L1003.01 312.439C1002.87 312.608 1002.67 312.756 1002.6 312.95C1001.91 314.92 1001.26 316.901 1000.57 318.871C1000.48 319.121 1000.23 319.317 1000.06 319.537C999.972 318.4 999.881 317.265 999.79 316.128Z" fill="#C2C1A7"/>
<path fill-rule="evenodd" clip-rule="evenodd" d="M1000.06 319.538C1000.23 319.317 1000.48 319.121 1000.57 318.872C1001.26 316.903 1001.92 314.922 1002.6 312.951C1002.67 312.758 1002.87 312.609 1003.01 312.439L1002.59 316.985C1002.48 317.114 1002.32 317.226 1002.26 317.377C1001.79 318.7 1001.35 320.033 1000.88 321.356C1000.78 321.629 1000.59 321.87 1000.45 322.125C1000.32 321.955 1000.08 321.791 1000.07 321.614C1000.03 320.925 1000.06 320.23 1000.06 319.538Z" fill="#CECDB7"/>
<path fill-rule="evenodd" clip-rule="evenodd" d="M1000.44 322.125C1000.59 321.869 1000.78 321.628 1000.88 321.356C1001.35 320.034 1001.79 318.7 1002.26 317.376C1002.32 317.226 1002.48 317.115 1002.59 316.985L1002.6 319.97L1001.6 322.531L1000.44 322.125Z" fill="#DBDAC7"/>
<path fill-rule="evenodd" clip-rule="evenodd" d="M1001.6 322.531L1002.6 319.97L1002.81 323L1001.6 322.531Z" fill="#EBE9DC"/>
<path fill-rule="evenodd" clip-rule="evenodd" d="M1003.31 311.449C1003.15 310.754 1003.42 310.204 1003.9 309.729L1004.17 309.918L1003.31 311.449Z" fill="#CECDB7"/>
<path fill-rule="evenodd" clip-rule="evenodd" d="M1000.73 298.557L1000.67 298.548L1000.62 298.556L1000.75 298.098L1000.73 298.557Z" fill="#4FAA41"/>
<path d="M1150 127.463C1146.36 128.388 1144.11 127.503 1142.1 124.474C1137.56 117.691 1132.56 111.219 1127.74 104.627C1127.12 103.774 1126.47 102.938 1125.66 101.877C1119.95 109.577 1114.25 116.91 1108.9 124.538C1106.98 127.264 1104.97 128.451 1101.4 127.487L1122.87 98.6892L1102.88 72.6811C1106.32 72.0115 1108.7 72.3543 1110.8 75.4309C1115.45 82.2219 1120.58 88.6861 1125.7 95.5249C1130.84 88.71 1135.91 82.2378 1140.69 75.5106C1142.61 72.7847 1144.68 71.7485 1148.13 72.7528C1145.52 76.22 1142.96 79.6314 1140.38 83.019C1136.9 87.5861 1133.49 92.2091 1129.88 96.6806C1128.6 98.2747 1128.81 99.3109 1129.96 100.817C1136.62 109.577 1143.21 118.424 1150 127.463ZM1050.02 98.211C1050.6 95.3336 1050.98 92.4004 1051.78 89.5788C1056.56 72.4977 1076.19 65.3959 1089.67 75.9809C1097.56 82.19 1099.53 90.9418 1099.13 100.809H1054.63C1053.96 118.512 1066.71 129.201 1082.97 123.749C1088.67 121.836 1092.03 117.372 1093.71 111.793C1094.56 108.995 1095.98 108.557 1098.61 109.354C1097.26 116.336 1094.21 122.171 1087.82 125.821C1078.25 131.289 1064.59 129.52 1057.4 121.924C1053.16 117.46 1051.36 111.904 1050.56 105.903C1050.44 104.946 1050.19 104.006 1050 103.057C1050.02 101.442 1050.02 99.8263 1050.02 98.211ZM1054.71 97.0233H1094.93C1094.67 84.2225 1086.69 75.1281 1075.79 75.0483C1063.82 74.9527 1055.22 83.832 1054.71 97.0233Z" fill="white"/>
<path d="M294.38 149.665C292.894 149.488 291.334 149.26 290.917 149.157C290.301 149.011 289.683 148.881 289.061 148.767C288.351 148.629 287.647 148.464 286.95 148.273C283.712 147.345 283.48 147.27 281.039 146.272C278.793 145.358 274.655 143.221 273.24 142.249C272.852 141.981 272.49 141.764 272.434 141.764C272.38 141.764 271.473 141.128 270.42 140.35C263.726 135.4 258.7 129.391 255.068 121.99C254.443 120.719 253.933 119.591 253.933 119.485C253.933 119.381 253.821 119.091 253.683 118.848C253.4 118.341 252.996 117.25 252.67 116.123C252.53 115.643 252.367 115.171 252.182 114.708C252.029 114.349 251.907 113.912 251.907 113.735C251.907 113.558 251.754 112.982 251.569 112.452C251.383 111.925 251.233 111.303 251.233 111.07C251.233 110.84 251.087 110.04 250.906 109.294C250.467 107.453 250 102.682 250 100.009C250 97.3385 250.467 92.5682 250.906 90.7273C251.086 89.9805 251.233 89.1666 251.233 88.9169C251.233 88.6664 251.346 88.1755 251.483 87.8244C251.623 87.4748 251.803 86.8466 251.886 86.4291C251.972 86.0116 252.167 85.2921 252.326 84.8255L252.786 83.4786C253.125 82.4696 253.439 81.6159 253.589 81.2834C253.675 81.0977 254.01 80.3392 254.336 79.5978C254.864 78.4 255.996 76.1409 256.658 74.9586C256.899 74.5255 256.991 74.3819 258.297 72.3428C260.366 69.1059 263.902 65.0785 267.194 62.2075C268.354 61.1954 272.23 58.2566 272.404 58.2566C272.452 58.2566 272.818 58.0373 273.218 57.7689C274.271 57.065 275.303 56.4672 276.648 55.7938C277.131 55.5552 277.609 55.3073 278.082 55.0501C278.305 54.9221 278.723 54.7301 280.868 53.7703C281.341 53.5596 281.85 53.3676 283.318 52.8549C283.642 52.7426 284.291 52.5046 284.755 52.3305C285.223 52.1573 285.772 52.0137 285.976 52.0137C286.178 52.0137 286.708 51.8733 287.154 51.7C287.6 51.526 288.408 51.3278 288.954 51.2607C289.498 51.1967 290.22 51.0445 290.56 50.9251C290.895 50.8096 291.817 50.6598 292.607 50.5935C293.636 50.5006 294.663 50.3796 295.686 50.2306C297.785 49.9231 302.35 49.9231 304.428 50.2306C305.41 50.3713 306.395 50.4871 307.382 50.5779C308.126 50.6395 309.075 50.7948 309.493 50.9228C309.911 51.0476 310.635 51.2037 311.099 51.2607C311.563 51.3223 312.344 51.5143 312.834 51.6906C313.327 51.8701 313.884 52.0137 314.076 52.0137C314.269 52.0137 314.665 52.1206 314.955 52.2548C315.248 52.3859 315.868 52.6052 316.335 52.7426C316.799 52.883 317.595 53.1601 318.108 53.3645C318.617 53.5682 319.301 53.8366 319.627 53.9584C320.229 54.1847 324.674 56.4064 325.278 56.7848C330.185 59.8415 332.709 61.8384 336.102 65.3407C340.194 69.5655 342.91 73.5891 345.674 79.512C345.87 79.9303 346.168 80.5491 346.339 80.8839C346.507 81.2225 346.648 81.619 346.648 81.7657C346.648 81.9139 346.788 82.3588 346.962 82.756C347.432 83.8352 347.834 85.0635 348.024 86.0023C348.118 86.4627 348.292 87.0323 348.411 87.2672C348.53 87.5013 348.67 88.0967 348.726 88.5845C348.78 89.0714 348.942 89.8705 349.08 90.3551C349.876 93.1105 350.272 101.229 349.79 104.819C349.647 105.886 349.486 107.176 349.431 107.685C349.339 108.556 348.878 110.809 348.484 112.324L348.078 113.927C347.313 117.015 345.421 121.414 343.111 125.484C342.195 127.099 339.126 131.468 338.546 131.979C338.494 132.025 338.235 132.331 337.972 132.653C337.71 132.979 336.868 133.891 336.105 134.677C332.745 138.143 330.036 140.286 325.278 143.237C324.714 143.587 319.93 145.922 319.035 146.285C318.571 146.471 317.796 146.784 317.314 146.979C316.835 147.172 316.301 147.334 316.133 147.337C315.965 147.339 315.523 147.489 315.151 147.669C314.779 147.848 314.305 147.998 314.095 148.001C313.887 148.004 313.28 148.151 312.746 148.327C312.213 148.507 311.47 148.699 311.098 148.756C310.726 148.815 309.93 148.973 309.325 149.108C308.722 149.242 306.896 149.504 305.274 149.69C301.654 150.111 297.998 150.103 294.38 149.665ZM298.054 139.911C298.288 139.728 298.53 139.365 298.594 139.11C298.734 138.545 321.43 93.0918 321.858 92.5221C322.218 92.0407 322.251 91.2697 321.922 90.9981C321.748 90.8522 319.575 90.8061 313.774 90.8155C309.423 90.8249 305.765 90.828 305.645 90.8249C305.469 90.8186 305.432 87.9141 305.45 75.4736C305.463 67.0325 305.423 60.0491 305.362 59.9523C305.301 59.854 305.063 59.7752 304.831 59.7752C304.504 59.7752 304.352 59.9156 304.151 60.4057C303.772 61.3172 302.725 63.3867 297.63 73.2699C296.571 75.3209 295.516 77.3733 294.462 79.4269C293.559 81.1921 292.134 83.9632 291.301 85.584C289.057 89.9409 286.819 94.3003 284.584 98.662C280.731 106.182 280.265 107.078 280.099 107.276C279.779 107.663 279.604 108.556 279.785 108.892C279.949 109.199 280.276 109.212 288.411 109.199C293.062 109.194 296.897 109.218 296.937 109.254C297.044 109.364 297.004 138.369 296.894 139.06C296.821 139.515 296.87 139.755 297.078 139.963C297.437 140.322 297.535 140.319 298.054 139.911Z" fill="#049688"/>
<path d="M583.667 323C592.891 323 600.333 315.558 600.333 306.334V289.667H583.667C574.442 289.667 567 297.109 567 306.334C567 315.558 574.442 323 583.667 323Z" fill="#0ACF83"/>
<path d="M567 273C567 263.775 574.442 256.333 583.667 256.333H600.333V289.666H583.667C574.442 289.666 567 282.224 567 273Z" fill="#A259FF"/>
<path d="M567 239.667C567 230.442 574.442 223 583.667 223H600.333V256.333H583.667C574.442 256.333 567 248.891 567 239.667Z" fill="#F24E1E"/>
<path d="M600.333 223H617C626.225 223 633.667 230.442 633.667 239.667C633.667 248.891 626.225 256.333 617 256.333H600.333V223Z" fill="#FF7262"/>
<path d="M633.667 273C633.667 282.224 626.225 289.666 617 289.666C607.775 289.666 600.333 282.224 600.333 273C600.333 263.775 607.775 256.333 617 256.333C626.225 256.333 633.667 263.775 633.667 273Z" fill="#1ABCFE"/>
<path d="M398.594 323L381.6 313.094V254.68L356 269.531L356.062 247.406L398.594 223V323ZM402.414 223V323L419.408 313.094V284.961L432.239 292.406L432.161 273.164L419.408 265.852V254.68L445 269.531L444.938 247.406L402.414 223Z" fill="#FF6F00"/>
<path d="M229.4 252.248L221.987 259.66C234.154 271.827 234.154 291.406 221.987 303.411C209.821 315.577 190.242 315.577 178.237 303.411C166.07 291.245 166.07 271.666 178.237 259.66L197.574 240.323L200.313 237.584V223L171.146 252.167C154.951 268.362 154.951 294.548 171.146 310.824C187.341 327.099 213.527 327.019 229.48 310.824C245.675 294.548 245.675 268.523 229.4 252.248Z" fill="#EE4C2C"/>
<path d="M220.27 245.152C220.326 242.171 217.954 239.71 214.973 239.655C211.992 239.6 209.531 241.972 209.476 244.952C209.421 247.933 211.792 250.394 214.773 250.45C217.754 250.505 220.215 248.133 220.27 245.152Z" fill="#EE4C2C"/>
<path d="M99.8652 50.0008C95.7862 50.0201 91.8928 50.3669 88.465 50.9737C78.369 52.7571 76.5372 56.4902 76.5372 63.3758V72.4679H100.394V75.4987H67.5832C60.6503 75.4987 54.5792 79.6656 52.6798 87.5955C50.4886 96.6819 50.392 102.353 52.6798 111.841C54.3753 118.905 58.4253 123.936 65.3592 123.936H73.5625V113.036C73.5625 105.162 80.3747 98.2161 88.4659 98.2161H112.295C118.929 98.2161 124.223 92.7536 124.223 86.0932V63.3767C124.223 56.9105 118.768 52.0538 112.295 50.9746C108.195 50.2925 103.943 49.9824 99.8652 50.0008ZM86.9636 57.3133C89.4272 57.3133 91.4406 59.3586 91.4406 61.8744C91.4406 64.3796 89.4282 66.4055 86.9636 66.4055C84.4903 66.4055 82.4876 64.3796 82.4876 61.8744C82.4866 59.3586 84.4903 57.3133 86.9636 57.3133Z" fill="url(#paint2_linear_2268_22)"/>
<path d="M127.198 75.498V86.0925C127.198 94.3046 120.234 101.217 112.294 101.217H88.4649C81.9377 101.217 76.5371 106.804 76.5371 113.341V136.059C76.5371 142.524 82.158 146.327 88.4649 148.181C96.0161 150.401 103.258 150.802 112.294 148.181C118.3 146.441 124.222 142.942 124.222 136.059V126.966H100.394V123.935H136.152C143.085 123.935 145.67 119.099 148.081 111.84C150.572 104.367 150.465 97.1798 148.081 87.5939C146.367 80.6909 143.095 75.4971 136.152 75.4971L127.198 75.498ZM113.795 133.028C116.269 133.028 118.272 135.054 118.272 137.561C118.272 140.075 116.268 142.12 113.795 142.12C111.331 142.12 109.319 140.075 109.319 137.561C109.319 135.054 111.331 133.028 113.795 133.028Z" fill="url(#paint3_linear_2268_22)"/>
<path d="M1248.11 268.546L1204.45 224.886C1201.94 222.371 1197.86 222.371 1195.34 224.886L1186.28 233.953L1197.78 245.454C1200.45 244.552 1203.52 245.157 1205.65 247.287C1207.79 249.431 1208.39 252.521 1207.46 255.203L1218.55 266.288C1221.23 265.364 1224.33 265.961 1226.47 268.106C1229.46 271.098 1229.46 275.949 1226.47 278.943C1225.75 279.654 1224.91 280.219 1223.98 280.605C1223.05 280.99 1222.05 281.188 1221.05 281.188C1220.04 281.188 1219.04 280.99 1218.11 280.605C1217.18 280.219 1216.34 279.654 1215.63 278.943C1214.56 277.873 1213.83 276.511 1213.53 275.028C1213.24 273.544 1213.38 272.007 1213.96 270.608L1203.62 260.272L1203.62 287.476C1204.37 287.845 1205.06 288.334 1205.65 288.924C1208.64 291.916 1208.64 296.765 1205.65 299.763C1202.65 302.755 1197.8 302.755 1194.81 299.763C1191.82 296.766 1191.82 291.917 1194.81 288.924C1195.53 288.206 1196.38 287.638 1197.32 287.252V259.796C1196.38 259.412 1195.53 258.844 1194.81 258.124C1192.55 255.858 1192 252.531 1193.16 249.746L1181.82 238.407L1151.89 268.344C1150.68 269.552 1150 271.191 1150 272.899C1150 274.607 1150.68 276.246 1151.89 277.454L1195.55 321.114C1198.06 323.629 1202.14 323.629 1204.66 321.114L1248.11 277.657C1249.32 276.448 1250 274.81 1250 273.101C1250 271.393 1249.32 269.754 1248.11 268.546Z" fill="#F34F29"/>
<path d="M1350 223H1450V323H1350V223Z" fill="#F0DB4F"/>
<path d="M1441.82 299.15C1441.08 294.588 1438.11 290.756 1429.3 287.183C1426.24 285.776 1422.82 284.769 1421.81 282.449C1421.44 281.099 1421.4 280.338 1421.63 279.521C1422.28 276.869 1425.45 276.042 1427.96 276.803C1429.57 277.344 1431.1 278.59 1432.02 280.576C1436.34 277.782 1436.33 277.801 1439.34 275.88C1438.24 274.17 1437.65 273.381 1436.93 272.649C1434.33 269.75 1430.8 268.257 1425.14 268.371L1422.2 268.752C1419.37 269.466 1416.68 270.948 1415.11 272.934C1410.37 278.305 1411.72 287.706 1417.48 291.575C1423.16 295.834 1431.49 296.803 1432.56 300.786C1433.59 305.662 1428.97 307.24 1424.38 306.679C1421 305.976 1419.12 304.256 1417.08 301.128C1413.34 303.296 1413.34 303.296 1409.49 305.51C1410.4 307.506 1411.36 308.41 1412.89 310.139C1420.13 317.487 1438.26 317.126 1441.51 306.004C1441.64 305.623 1442.52 303.076 1441.82 299.15ZM1404.36 268.96H1395.01L1394.97 293.142C1394.97 298.285 1395.24 302.999 1394.4 304.444C1393.03 307.287 1389.49 306.934 1387.87 306.383C1386.23 305.575 1385.39 304.425 1384.42 302.8C1384.15 302.334 1383.95 301.973 1383.89 301.945L1376.28 306.602C1377.55 309.197 1379.41 311.45 1381.8 312.913C1385.36 315.053 1390.15 315.708 1395.16 314.558C1398.42 313.608 1401.24 311.641 1402.71 308.646C1404.84 304.72 1404.38 299.968 1404.36 294.712C1404.41 286.136 1404.36 277.563 1404.36 268.96Z" fill="#323330"/>
<path d="M801.949 223.644C801.231 223.233 800.419 223.017 799.592 223.017C798.765 223.017 797.952 223.233 797.234 223.644L758.312 246.249C756.832 247.087 756 248.667 756 250.343V295.646C756 297.32 756.924 298.902 758.311 299.74L797.233 322.344C797.95 322.756 798.763 322.972 799.59 322.972C800.418 322.972 801.231 322.756 801.948 322.344L840.87 299.739C842.35 298.902 843.181 297.32 843.181 295.645V250.343C843.181 248.668 842.257 247.088 840.87 246.249L801.949 223.644Z" fill="url(#paint4_linear_2268_22)"/>
<path d="M840.964 246.25L801.858 223.645C801.474 223.449 801.071 223.294 800.655 223.18L756.834 298.623C757.196 299.069 757.634 299.447 758.128 299.74L797.235 322.345C798.344 322.996 799.638 323.182 800.84 322.81L841.981 247.087C841.711 246.734 841.363 246.447 840.964 246.25Z" fill="url(#paint5_linear_2268_22)"/>
<path d="M840.965 299.738C842.074 299.087 842.906 297.971 843.276 296.762L800.471 223.085C799.362 222.899 798.159 222.992 797.143 223.643L758.313 246.156L800.193 322.995C800.748 322.901 801.396 322.715 801.951 322.437L840.965 299.738Z" fill="url(#paint6_linear_2268_22)"/>
<path d="M1349.01 91.0887C1348.74 90.8727 1346.21 88.9617 1340.87 88.9617C1339.46 88.9678 1338.06 89.0885 1336.67 89.3227C1335.63 82.2397 1329.78 78.7867 1329.51 78.6317L1328.08 77.8047L1327.14 79.1647C1325.95 80.9925 1325.09 83.0078 1324.59 85.1247C1323.63 89.1677 1324.21 92.9657 1326.27 96.2127C1323.79 97.5947 1319.81 97.9347 1319 97.9647H1253.13C1252.3 97.9655 1251.51 98.2932 1250.93 98.8765C1250.34 99.4597 1250.01 100.251 1250 101.078C1249.93 106.849 1250.91 112.585 1252.89 118.005C1255.16 123.955 1258.54 128.339 1262.93 131.022C1267.85 134.036 1275.85 135.758 1284.91 135.758C1289 135.77 1293.09 135.4 1297.12 134.651C1302.71 133.624 1308.1 131.668 1313.05 128.864C1317.13 126.501 1320.8 123.496 1323.92 119.964C1329.14 114.056 1332.25 107.477 1334.56 101.63H1335.48C1341.2 101.63 1344.71 99.3427 1346.65 97.4267C1347.93 96.2043 1348.94 94.7156 1349.59 93.0647L1350 91.8677L1349.01 91.0887Z" fill="#2496ED"/>
<path d="M1259.24 96.036H1268.06C1268.16 96.0361 1268.26 96.0163 1268.36 95.9777C1268.45 95.939 1268.54 95.8823 1268.61 95.8108C1268.68 95.7393 1268.74 95.6544 1268.78 95.5609C1268.81 95.4674 1268.83 95.3672 1268.83 95.266V87.403C1268.83 87.3018 1268.82 87.2015 1268.78 87.1077C1268.74 87.014 1268.68 86.9287 1268.61 86.8567C1268.54 86.7847 1268.46 86.7275 1268.36 86.6882C1268.27 86.649 1268.17 86.6285 1268.07 86.628H1259.24C1259.13 86.628 1259.03 86.6479 1258.94 86.6866C1258.85 86.7253 1258.76 86.782 1258.69 86.8535C1258.62 86.925 1258.56 87.0099 1258.52 87.1033C1258.49 87.1968 1258.47 87.2969 1258.47 87.398V95.265C1258.47 95.3662 1258.49 95.4664 1258.52 95.56C1258.56 95.6535 1258.62 95.7385 1258.69 95.8101C1258.76 95.8817 1258.85 95.9385 1258.94 95.9773C1259.03 96.016 1259.13 96.036 1259.24 96.036ZM1271.4 96.036H1280.23C1280.43 96.036 1280.63 95.9549 1280.77 95.8105C1280.92 95.6661 1281 95.4702 1281 95.266V87.403C1281 87.3018 1280.98 87.2015 1280.94 87.1077C1280.9 87.014 1280.85 86.9287 1280.78 86.8567C1280.7 86.7847 1280.62 86.7275 1280.53 86.6882C1280.43 86.649 1280.33 86.6285 1280.23 86.628H1271.4C1271.19 86.628 1271 86.7097 1270.85 86.855C1270.71 87.0003 1270.63 87.1975 1270.63 87.403V95.265C1270.63 95.4698 1270.71 95.6659 1270.85 95.8104C1271 95.9549 1271.2 96.036 1271.4 96.036ZM1283.75 96.036H1292.58C1292.78 96.036 1292.98 95.9549 1293.12 95.8105C1293.27 95.6661 1293.35 95.4702 1293.35 95.266V87.403C1293.35 87.3018 1293.33 87.2015 1293.29 87.1077C1293.25 87.014 1293.2 86.9287 1293.12 86.8567C1293.05 86.7847 1292.97 86.7275 1292.88 86.6882C1292.78 86.649 1292.68 86.6285 1292.58 86.628H1283.75C1283.65 86.628 1283.55 86.6479 1283.45 86.6866C1283.36 86.7253 1283.28 86.782 1283.2 86.8535C1283.13 86.925 1283.08 87.0099 1283.04 87.1033C1283 87.1968 1282.98 87.2969 1282.98 87.398V95.265C1282.98 95.3662 1283 95.4664 1283.04 95.56C1283.08 95.6535 1283.13 95.7385 1283.2 95.8101C1283.28 95.8817 1283.36 95.9385 1283.45 95.9773C1283.55 96.016 1283.65 96.036 1283.75 96.036ZM1295.95 96.036H1304.78C1304.98 96.036 1305.18 95.955 1305.33 95.8108C1305.47 95.6665 1305.55 95.4707 1305.56 95.266V87.403C1305.56 87.1975 1305.47 87.0003 1305.33 86.855C1305.18 86.7097 1304.99 86.628 1304.78 86.628H1295.95C1295.85 86.6279 1295.75 86.6477 1295.66 86.6863C1295.56 86.725 1295.48 86.7817 1295.41 86.8532C1295.34 86.9247 1295.28 87.0096 1295.24 87.1031C1295.2 87.1966 1295.18 87.2968 1295.18 87.398V95.265C1295.18 95.3662 1295.2 95.4664 1295.24 95.56C1295.28 95.6535 1295.34 95.7385 1295.41 95.8101C1295.48 95.8817 1295.56 95.9385 1295.66 95.9773C1295.75 96.016 1295.85 96.036 1295.95 96.036ZM1271.4 84.725H1280.23C1280.43 84.7237 1280.63 84.6414 1280.77 84.4962C1280.92 84.351 1281 84.1547 1281 83.95V76.087C1281 75.8828 1280.92 75.6869 1280.77 75.5425C1280.63 75.3981 1280.43 75.317 1280.23 75.317H1271.4C1271.2 75.317 1271 75.398 1270.85 75.5422C1270.71 75.6865 1270.63 75.8823 1270.63 76.087V83.95C1270.63 84.1551 1270.71 84.3515 1270.85 84.4966C1271 84.6416 1271.19 84.7237 1271.4 84.725ZM1283.75 84.725H1292.58C1292.78 84.7237 1292.98 84.6414 1293.12 84.4962C1293.27 84.351 1293.35 84.1547 1293.35 83.95V76.087C1293.35 75.8828 1293.27 75.6869 1293.12 75.5425C1292.98 75.3981 1292.78 75.317 1292.58 75.317H1283.75C1283.65 75.3169 1283.55 75.3367 1283.46 75.3753C1283.36 75.414 1283.28 75.4707 1283.2 75.5422C1283.13 75.6137 1283.08 75.6986 1283.04 75.7921C1283 75.8856 1282.98 75.9858 1282.98 76.087V83.95C1282.98 84.376 1283.32 84.722 1283.75 84.725ZM1295.95 84.725H1304.78C1304.99 84.7237 1305.18 84.6416 1305.33 84.4966C1305.47 84.3515 1305.55 84.1551 1305.56 83.95V76.087C1305.55 75.8823 1305.47 75.6865 1305.33 75.5422C1305.18 75.398 1304.98 75.317 1304.78 75.317H1295.95C1295.85 75.3169 1295.75 75.3367 1295.66 75.3753C1295.56 75.414 1295.48 75.4707 1295.41 75.5422C1295.34 75.6137 1295.28 75.6986 1295.24 75.7921C1295.2 75.8856 1295.18 75.9858 1295.18 76.087V83.95C1295.18 84.376 1295.53 84.722 1295.95 84.725ZM1295.95 73.409H1304.78C1304.98 73.409 1305.18 73.328 1305.33 73.1838C1305.47 73.0395 1305.55 72.8437 1305.56 72.639V64.77C1305.55 64.5653 1305.47 64.3695 1305.33 64.2252C1305.18 64.081 1304.98 64 1304.78 64H1295.95C1295.85 63.9999 1295.75 64.0197 1295.66 64.0583C1295.56 64.097 1295.48 64.1537 1295.41 64.2252C1295.34 64.2967 1295.28 64.3816 1295.24 64.4751C1295.2 64.5686 1295.18 64.6688 1295.18 64.77V72.637C1295.18 73.063 1295.53 73.407 1295.95 73.407M1308.26 96.036H1317.09C1317.29 96.036 1317.49 95.955 1317.64 95.8108C1317.78 95.6665 1317.86 95.4707 1317.87 95.266V87.403C1317.87 87.1975 1317.78 87.0003 1317.64 86.855C1317.49 86.7097 1317.3 86.628 1317.09 86.628H1308.26C1308.16 86.628 1308.06 86.6479 1307.97 86.6866C1307.87 86.7253 1307.79 86.782 1307.72 86.8535C1307.65 86.925 1307.59 87.0099 1307.55 87.1033C1307.51 87.1968 1307.49 87.2969 1307.49 87.398V95.265C1307.49 95.3662 1307.51 95.4664 1307.55 95.56C1307.59 95.6535 1307.65 95.7385 1307.72 95.8101C1307.79 95.8817 1307.87 95.9385 1307.97 95.9773C1308.06 96.016 1308.16 96.036 1308.26 96.036Z" fill="#2496ED"/>
<path d="M499.994 106.849L482.463 97.5824L452.032 81.499C452.005 81.4712 451.949 81.4712 451.921 81.4712C450.81 80.9435 449.671 82.0546 450.088 83.1657L465.594 122.713L465.596 122.722C465.613 122.761 465.627 122.799 465.644 122.838C466.28 124.313 467.669 125.224 469.18 125.583C469.307 125.611 469.399 125.636 469.552 125.666C469.705 125.7 469.919 125.747 470.102 125.761C470.132 125.763 470.16 125.763 470.191 125.766H470.213C470.235 125.769 470.257 125.769 470.28 125.772H470.31C470.33 125.774 470.352 125.774 470.371 125.774H470.407C470.43 125.778 470.452 125.778 470.474 125.778C490.111 127.919 509.923 127.919 529.56 125.778C529.796 125.778 530.027 125.766 530.249 125.744C530.321 125.736 530.391 125.728 530.46 125.719C530.469 125.716 530.48 125.716 530.488 125.713C530.535 125.707 530.582 125.699 530.63 125.691C530.699 125.683 530.769 125.669 530.838 125.655C530.977 125.624 531.04 125.602 531.229 125.537C531.417 125.473 531.73 125.359 531.926 125.265C532.122 125.171 532.257 125.08 532.421 124.977C532.624 124.849 532.817 124.719 533.013 124.572C533.097 124.507 533.155 124.466 533.216 124.408L533.182 124.388L499.994 106.849Z" fill="#FF4B4B"/>
<path d="M548.006 81.5004H547.978L517.536 97.5838L534.458 122.787L549.925 83.1671V83.1116C550.314 81.9449 549.12 80.8893 548.006 81.5004Z" fill="#7D353B"/>
<path d="M501.616 73.8521C500.838 72.716 499.144 72.716 498.394 73.8521L482.463 97.5828L499.994 106.85L533.216 124.408C533.425 124.203 533.592 124.004 533.769 123.794C534.019 123.486 534.252 123.155 534.458 122.786L517.536 97.5828L501.616 73.8521Z" fill="#BD4043"/>
<path d="M675.412 74C661.4 74 650 85.4397 650 99.5C650 113.56 661.4 125 675.412 125H724.588C738.6 125 750 113.56 750 99.5C750 85.4397 738.6 74 724.588 74H675.412ZM674.906 82.1059C676.96 82.1579 679.156 83.1523 680.21 84.7169C681.74 86.642 682.201 89.1893 683.937 90.9769C686.272 93.5418 688.932 95.8002 691.087 98.5316C693.125 101.028 694.581 103.955 695.852 106.906C696.37 107.885 696.376 109.087 697.144 109.923C697.522 110.428 699.371 111.802 698.97 112.29C699.201 112.794 700.929 113.489 700.33 113.978C699.52 114.146 698.609 114.177 697.99 113.528C697.761 114.056 697.227 113.777 696.815 113.709C696.779 113.811 696.745 113.914 696.711 114.017C695.341 114.109 694.313 112.707 693.661 111.649C692.365 110.944 690.893 110.516 689.569 109.779C689.493 110.992 689.757 112.498 688.607 113.281C688.548 115.614 692.122 113.556 692.449 115.295C692.195 115.323 691.913 115.255 691.71 115.451C690.777 116.362 689.708 114.761 688.633 115.422C687.19 116.151 687.046 116.747 685.26 116.897C685.161 116.747 685.2 116.649 685.284 116.557C685.787 115.971 685.824 115.28 686.682 115.03C685.798 114.89 685.058 115.379 684.313 115.767C683.345 116.165 683.353 114.869 681.864 115.836C681.699 115.701 681.777 115.578 681.872 115.473C682.25 115.009 682.747 114.941 683.309 114.967C680.547 113.422 679.246 116.856 677.97 115.148C677.587 115.25 677.443 115.596 677.202 115.841C676.993 115.611 677.15 115.332 677.16 115.062C676.911 114.945 676.595 114.89 676.669 114.489C676.181 114.324 675.841 114.613 675.477 114.888C675.15 114.634 675.699 114.263 675.801 113.998C676.093 113.488 676.759 113.893 677.097 113.526C678.058 112.977 679.397 113.867 680.495 113.716C681.341 113.823 682.388 112.951 681.964 112.081C681.06 110.921 681.218 109.404 681.198 108.017C681.086 107.208 679.152 106.18 678.593 105.308C677.902 104.522 677.364 103.611 676.825 102.716C674.881 98.9395 675.492 94.0864 673.043 90.5803C671.935 91.1949 670.491 90.9048 669.535 90.0815C669.02 90.5531 668.997 91.1706 668.956 91.8259C667.719 90.5841 667.876 88.2377 668.865 86.8559C669.268 86.31 669.751 85.861 670.29 85.4657C670.411 85.3764 670.452 85.29 670.45 85.1525C670.939 82.9444 672.852 82.0539 674.906 82.1059ZM726.602 84.0344C728.925 84.0344 731.105 84.9395 732.744 86.5842C734.383 88.2289 735.285 90.4181 735.285 92.7486C735.285 95.0796 734.382 97.268 732.744 98.9106L728.985 102.684C727.985 103.689 726.755 104.433 725.403 104.85L725.335 104.87L725.311 104.938C724.878 106.09 724.205 107.135 723.336 108.002L719.578 111.773C717.939 113.418 715.757 114.323 713.435 114.323C711.112 114.323 708.932 113.418 707.293 111.773C703.905 108.374 703.905 102.846 707.293 99.4468L711.051 95.6757C712.048 94.6718 713.276 93.9312 714.626 93.5196L714.697 93.4974L714.721 93.4311C715.156 92.2757 715.831 91.227 716.701 90.3552L720.458 86.5842C722.097 84.9391 724.28 84.0344 726.602 84.0344ZM726.602 87.7928C725.953 87.7907 725.31 87.9179 724.71 88.167C724.111 88.4161 723.566 88.7822 723.107 89.2442L719.35 93.0153C718.848 93.52 718.46 94.1279 718.214 94.7974C717.967 95.4669 717.868 96.1821 717.922 96.894L717.944 97.1338C718.078 98.2456 718.565 99.2485 719.35 100.034C719.891 100.577 720.488 100.92 721.212 101.16C721.251 101.379 721.271 101.601 721.271 101.823C721.273 102.314 721.178 102.8 720.991 103.254C720.804 103.708 720.53 104.12 720.184 104.466L719.953 104.698C718.697 104.267 717.651 103.637 716.705 102.689C715.455 101.441 714.617 99.8352 714.305 98.0909L714.264 97.8486L714.072 98.0029C713.944 98.1072 713.822 98.2183 713.707 98.3358L709.947 102.107C708.02 104.039 708.02 107.188 709.947 109.121C710.91 110.087 712.176 110.571 713.444 110.572C714.712 110.572 715.976 110.087 716.939 109.12L720.697 105.349C722.623 103.416 722.623 100.271 720.697 98.3354C720.183 97.8197 719.562 97.426 718.877 97.1829C718.84 96.9597 718.82 96.7338 718.819 96.5075C718.819 95.4213 719.245 94.3904 720.028 93.6051C721.286 94.0361 722.403 94.7345 723.345 95.6803C724.598 96.9376 725.426 98.527 725.744 100.279L725.787 100.521L725.977 100.364C726.106 100.26 726.23 100.149 726.347 100.032L730.105 96.2601C732.031 94.3275 732.033 91.1773 730.105 89.2442C729.646 88.7819 729.101 88.4155 728.5 88.1664C727.9 87.9173 727.257 87.7903 726.607 87.7928H726.602ZM685.048 109.412C684.717 110.702 684.609 112.901 682.937 112.965C682.8 113.71 683.449 113.99 684.043 113.751C684.631 113.48 684.91 113.964 685.109 114.445C686.016 114.578 687.356 114.141 687.407 113.063C686.053 112.28 685.635 110.791 685.048 109.412Z" fill="#203D3D"/>
<defs>
<linearGradient id="paint0_linear_2268_22" x1="899.204" y1="98.9269" x2="935.111" y2="113.986" gradientUnits="userSpaceOnUse">
<stop stop-color="#249361"/>
<stop offset="1" stop-color="#3ECF8E"/>
</linearGradient>
<linearGradient id="paint1_linear_2268_22" x1="883.284" y1="77.13" x2="899.66" y2="107.957" gradientUnits="userSpaceOnUse">
<stop/>
<stop offset="1" stop-opacity="0"/>
</linearGradient>
<linearGradient id="paint2_linear_2268_22" x1="48.6084" y1="52.8437" x2="103.633" y2="99.7681" gradientUnits="userSpaceOnUse">
<stop stop-color="#5A9FD4"/>
<stop offset="1" stop-color="#306998"/>
</linearGradient>
<linearGradient id="paint3_linear_2268_22" x1="124.335" y1="128.937" x2="104.602" y2="101.265" gradientUnits="userSpaceOnUse">
<stop stop-color="#FFD43B"/>
<stop offset="1" stop-color="#FFE873"/>
</linearGradient>
<linearGradient id="paint4_linear_2268_22" x1="815.442" y1="240.478" x2="779.896" y2="312.54" gradientUnits="userSpaceOnUse">
<stop stop-color="#3F873F"/>
<stop offset="0.33" stop-color="#3F8B3D"/>
<stop offset="0.637" stop-color="#3E9638"/>
<stop offset="0.934" stop-color="#3DA92E"/>
<stop offset="1" stop-color="#3DAE2B"/>
</linearGradient>
<linearGradient id="paint5_linear_2268_22" x1="793.678" y1="278.286" x2="892.854" y2="205.46" gradientUnits="userSpaceOnUse">
<stop offset="0.138" stop-color="#3F873F"/>
<stop offset="0.402" stop-color="#52A044"/>
<stop offset="0.713" stop-color="#64B749"/>
<stop offset="0.908" stop-color="#6ABF4B"/>
</linearGradient>
<linearGradient id="paint6_linear_2268_22" x1="754.576" y1="272.98" x2="844.638" y2="272.98" gradientUnits="userSpaceOnUse">
<stop offset="0.092" stop-color="#6ABF4B"/>
<stop offset="0.287" stop-color="#64B749"/>
<stop offset="0.598" stop-color="#52A044"/>
<stop offset="0.862" stop-color="#3F873F"/>
</linearGradient>
</defs>
</svg>
